Simulation
nRows=20
nColumns=15
endheader
time  TH_x TH_y TH_z SC_y  SC_z  SC_x  AC_y  AC_z  AC_x  GH_y  GH_z  GH_yy  EL_x  PS_y
2.681  0.000000  0.000000  0.000000  -24.548295920763813  10.927474846635684  -1.366621330919668  45.51514893261601  8.158142948996462  2.149294393737022  44.32787333397718  3.5935538286422353  -4.006236296251106  15.897788076690613  120.000000
2.73462  0.000000  0.000000  0.000000  -24.666813397914364  10.490094578598297  -0.9303435099803865  46.01797336856927  8.522097493518823  2.0085492003175487  82.50723306015375  2.7554174028134977  -38.61131582997949  16.97720114251883  120.000000
2.78824  0.000000  0.000000  0.000000  -25.015141468675957  10.016599696394834  -0.444850232030734  46.60870920167613  8.955858628094596  1.8660904699171514  113.7221521593839  3.2802830679211263  -67.29609340169397  17.846067892143644  120.000000
2.84186  0.000000  0.000000  0.000000  -25.483603833376893  9.523643157032234  0.03551341430789261  47.23333210260871  9.426048614286774  1.7199823340967246  127.41768294240504  4.130441465697648  -79.4122552495259  18.463825896418818  120.000000
2.89548  0.000000  0.000000  0.000000  -25.947479304462576  9.022662952024032  0.46635407920453786  47.862375716834414  9.899566351392858  1.5772363655822217  132.81956103524598  4.7803688617977205  -84.01598624291731  18.826927381338283  120.000000
2.9491  0.000000  0.000000  0.000000  -26.299073951348667  8.521137819886587  0.8144737154679188  48.48291150743395  10.343373364730581  1.4505289018694856  134.59937074547713  5.10586678638797  -85.58772310653335  18.960121709856374  120.000000
3.00272  0.000000  0.000000  0.000000  -26.47453798218188  8.026091431682216  1.060899475284383  49.08718923390849  10.731955803482256  1.3517820443964583  134.40184678886672  5.110886249190182  -85.60357619018502  18.910089343778058  120.000000
3.05634  0.000000  0.000000  0.000000  -26.4590514719581  7.547228587371303  1.1945782843172026  49.66637744661906  11.054934325310997  1.290944883212802  132.66975743937866  4.851543985926689  -84.36837104776335  18.737756814202164  120.000000
3.10996  0.000000  0.000000  0.000000  -26.27169874235456  7.096674500889316  1.2074101827001222  50.211213669379006  11.311330170805197  1.275973473987105  129.29293029575524  4.409480697352586  -81.6574236608351  18.50840911119895  120.000000
3.16358  0.000000  0.000000  0.000000  -25.951685239884437  6.683722946107289  1.1027716253831459  50.71261721352584  11.501003467439197  1.3092298776294942  123.7804666234424  3.879538448064596  -76.88935589508645  18.27569291068229  120.000000
3.2172  0.000000  0.000000  0.000000  -25.54402241428799  6.3140760770154625  0.8972378351552432  51.163832151211295  11.622692793554817  1.3878438856655162  115.37905923265174  3.3650094206167176  -69.2422271911372  18.07027898371842  120.000000
3.27082  0.000000  0.000000  0.000000  -25.090579830523268  5.991097636467599  0.6113288174603912  51.56093507453352  11.677430023570766  1.5078863947669965  103.54133362056899  2.973112441535773  -58.12075720149691  17.898490366717915  120.000000
3.32444  0.000000  0.000000  0.000000  -24.62544746748542  5.717550142810128  0.2635955803831894  51.90298118050744  11.671418842753113  1.663987853936382  89.01103335733164  2.7994326270856718  -44.240732469581026  17.750752281977135  120.000000
3.37806  0.000000  0.000000  0.000000  -24.171093838864895  5.49422431489533  -0.13291918935092703  52.19096476436037  11.614831415576594  1.8489432640894747  74.46035512458755  2.886770850102107  -30.26050914194403  17.613709351292076  120.000000
3.43168  0.000000  0.000000  0.000000  -23.7394474209619  5.318005280118748  -0.5709015032973908  52.424044890690546  11.51856395423027  2.0552631888845463  62.59399880279309  3.2020448959924765  -18.88109551192638  17.479123756256246  120.000000
3.4853  0.000000  0.000000  0.000000  -23.333940369023136  5.18160814214501  -1.0470801536613443  52.59661152959651  11.391217591798663  2.275721716568935  54.136107441111086  3.6764616187354062  -10.82780470477495  17.346645365939352  120.000000
3.53892  0.000000  0.000000  0.000000  -22.950598158642  5.074772313120804  -1.5614623532419878  52.698400405455146  11.236581082475775  2.503460690027233  48.41163445383861  4.2521451531359675  -5.427442870361163  17.22158047353189  120.000000
3.59254  0.000000  0.000000  0.000000  -22.577950022301188  4.98696905539409  -2.1169983538054167  52.71964740469448  11.054611326695408  2.7314788893159916  44.502890856435386  4.895332549470991  -1.7638695178476613  17.109151962093787  120.000000
3.64616  0.000000  0.000000  0.000000  -22.19713093357722  4.90966736180909  -2.717879420822362  52.65628354642298  10.844476520391222  2.952226381392696  41.69333137674802  5.592084221561907  0.8782599481481175  17.00772978836098  120.000000
3.69978  0.000000  0.000000  0.000000  -21.78509783820241  4.83713089184283  -3.3658810630332945  52.51015523795164  10.607062527070559  3.158350527789922  39.47485316044464  6.340993344677674  3.005210747003652  16.90436571410366  120.000000
